HIERARCHY
ROOT Hips
{
    OFFSET   0.000000   0.000000   0.000000
    CHANNELS 6 Xposition Yposition Zposition Zrotation Xrotation Yrotation
    JOINT Chest
    {
        OFFSET   0.000000   8.007240   0.000000
        CHANNELS 3 Zrotation Xrotation Yrotation
        JOINT Chest2
        {
            OFFSET   0.000000  22.077100   0.000000
            CHANNELS 3 Zrotation Xrotation Yrotation
            JOINT Neck
            {
                OFFSET   0.000000  23.254800   0.000000
                CHANNELS 3 Zrotation Xrotation Yrotation
                JOINT Head
                {
                    OFFSET   0.000000  14.370000   1.956600
                    CHANNELS 3 Zrotation Xrotation Yrotation
                    End Site
                    {
                        OFFSET   0.000000  19.566000   0.000000
                    }
                }
            }
            JOINT LeftCollar
            {
                OFFSET   3.911900  19.017000  -0.467064
                CHANNELS 3 Zrotation Xrotation Yrotation
                JOINT LeftShoulder
                {
                    OFFSET  10.383700   0.000000   0.000000
                    CHANNELS 3 Zrotation Xrotation Yrotation
                    JOINT LeftElbow
                    {
                        OFFSET  26.662100   0.001476   0.000517
                        CHANNELS 3 Zrotation Xrotation Yrotation
                        JOINT LeftWrist
                        {
                            OFFSET  28.869000  -0.000025  -0.000106
                            CHANNELS 3 Zrotation Xrotation Yrotation
                            JOINT LeftFinger0
                            {
                                OFFSET   2.044660  -2.323460   3.252850
                                CHANNELS 3 Zrotation Xrotation Yrotation
                                JOINT LeftFinger01
                                {
                                    OFFSET   3.088130   0.000000   0.000000
                                    CHANNELS 3 Zrotation Xrotation Yrotation
                                    JOINT LeftFinger02
                                    {
                                        OFFSET   2.639460   0.000000   0.000000
                                        CHANNELS 3 Zrotation Xrotation Yrotation
                                        End Site
                                        {
                                            OFFSET   2.582190   0.000000   0.000000
                                        }
                                    }
                                }
                            }
                            JOINT LeftFinger1
                            {
                                OFFSET   8.364480   0.000000   3.252850
                                CHANNELS 3 Zrotation Xrotation Yrotation
                                JOINT LeftFinger11
                                {
                                    OFFSET   4.646930   0.000000   0.000000
                                    CHANNELS 3 Zrotation Xrotation Yrotation
                                    JOINT LeftFinger12
                                    {
                                        OFFSET   2.323460   0.000000   0.000000
                                        CHANNELS 3 Zrotation Xrotation Yrotation
                                        End Site
                                        {
                                            OFFSET   2.273050   0.000000   0.000000
                                        }
                                    }
                                }
                            }
                            JOINT LeftFinger2
                            {
                                OFFSET   8.364490   0.000015   1.078090
                                CHANNELS 3 Zrotation Xrotation Yrotation
                                JOINT LeftFinger21
                                {
                                    OFFSET   5.111620   0.000000   0.000000
                                    CHANNELS 3 Zrotation Xrotation Yrotation
                                    JOINT LeftFinger22
                                    {
                                        OFFSET   2.788160   0.000016   0.000000
                                        CHANNELS 3 Zrotation Xrotation Yrotation
                                        End Site
                                        {
                                            OFFSET   2.727660   0.000000   0.000000
                                        }
                                    }
                                }
                            }
                            JOINT LeftFinger3
                            {
                                OFFSET   7.899780   0.000017  -1.078090
                                CHANNELS 3 Zrotation Xrotation Yrotation
                                JOINT LeftFinger31
                                {
                                    OFFSET   4.646930   0.000000   0.000000
                                    CHANNELS 3 Zrotation Xrotation Yrotation
                                    JOINT LeftFinger32
                                    {
                                        OFFSET   2.323470   0.000000   0.000000
                                        CHANNELS 3 Zrotation Xrotation Yrotation
                                        End Site
                                        {
                                            OFFSET   2.273050   0.000000   0.000000
                                        }
                                    }
                                }
                            }
                            JOINT LeftFinger4
                            {
                                OFFSET   7.435090   0.000000  -3.252850
                                CHANNELS 3 Zrotation Xrotation Yrotation
                                JOINT LeftFinger41
                                {
                                    OFFSET   3.717550   0.000000   0.000000
                                    CHANNELS 3 Zrotation Xrotation Yrotation
                                    JOINT LeftFinger42
                                    {
                                        OFFSET   1.858770   0.000000   0.000000
                                        CHANNELS 3 Zrotation Xrotation Yrotation
                                        End Site
                                        {
                                            OFFSET   1.818440   0.000000   0.000000
                                        }
                                    }
                                }
                            }
                        }
                    }
                }
            }
            JOINT RightCollar
            {
                OFFSET  -3.911900  19.017000  -0.467063
                CHANNELS 3 Zrotation Xrotation Yrotation
                JOINT RightShoulder
                {
                    OFFSET -10.383700   0.000019   0.000000
                    CHANNELS 3 Zrotation Xrotation Yrotation
                    JOINT RightElbow
                    {
                        OFFSET -26.662100   0.001175   0.000102
                        CHANNELS 3 Zrotation Xrotation Yrotation
                        JOINT RightWrist
                        {
                            OFFSET -28.869000   0.000016  -0.000079
                            CHANNELS 3 Zrotation Xrotation Yrotation
                            JOINT RightFinger0
                            {
                                OFFSET  -2.044660  -2.323490   3.252850
                                CHANNELS 3 Zrotation Xrotation Yrotation
                                JOINT RightFinger01
                                {
                                    OFFSET  -3.088140   0.000000   0.000000
                                    CHANNELS 3 Zrotation Xrotation Yrotation
                                    JOINT RightFinger02
                                    {
                                        OFFSET  -2.639460   0.000000   0.000000
                                        CHANNELS 3 Zrotation Xrotation Yrotation
                                        End Site
                                        {
                                            OFFSET  -2.582190   0.000000   0.000000
                                        }
                                    }
                                }
                            }
                            JOINT RightFinger1
                            {
                                OFFSET  -8.364480   0.000000   3.252850
                                CHANNELS 3 Zrotation Xrotation Yrotation
                                JOINT RightFinger11
                                {
                                    OFFSET  -4.646930   0.000000   0.000000
                                    CHANNELS 3 Zrotation Xrotation Yrotation
                                    JOINT RightFinger12
                                    {
                                        OFFSET  -2.323470   0.000000   0.000000
                                        CHANNELS 3 Zrotation Xrotation Yrotation
                                        End Site
                                        {
                                            OFFSET  -2.273050   0.000000   0.000000
                                        }
                                    }
                                }
                            }
                            JOINT RightFinger2
                            {
                                OFFSET  -8.364480   0.000000   1.078090
                                CHANNELS 3 Zrotation Xrotation Yrotation
                                JOINT RightFinger21
                                {
                                    OFFSET  -5.111620   0.000000   0.000000
                                    CHANNELS 3 Zrotation Xrotation Yrotation
                                    JOINT RightFinger22
                                    {
                                        OFFSET  -2.788160   0.000000   0.000000
                                        CHANNELS 3 Zrotation Xrotation Yrotation
                                        End Site
                                        {
                                            OFFSET  -2.727660   0.000000   0.000000
                                        }
                                    }
                                }
                            }
                            JOINT RightFinger3
                            {
                                OFFSET  -7.899780   0.000000  -1.078090
                                CHANNELS 3 Zrotation Xrotation Yrotation
                                JOINT RightFinger31
                                {
                                    OFFSET  -4.646930   0.000000   0.000000
                                    CHANNELS 3 Zrotation Xrotation Yrotation
                                    JOINT RightFinger32
                                    {
                                        OFFSET  -2.323470   0.000000   0.000000
                                        CHANNELS 3 Zrotation Xrotation Yrotation
                                        End Site
                                        {
                                            OFFSET  -2.273050   0.000000   0.000000
                                        }
                                    }
                                }
                            }
                            JOINT RightFinger4
                            {
                                OFFSET  -7.435090   0.000000  -3.252850
                                CHANNELS 3 Zrotation Xrotation Yrotation
                                JOINT RightFinger41
                                {
                                    OFFSET  -3.717550   0.000000   0.000000
                                    CHANNELS 3 Zrotation Xrotation Yrotation
                                    JOINT RightFinger42
                                    {
                                        OFFSET  -1.858770   0.000000   0.000000
                                        CHANNELS 3 Zrotation Xrotation Yrotation
                                        End Site
                                        {
                                            OFFSET  -1.818440   0.000000   0.000000
                                        }
                                    }
                                }
                            }
                        }
                    }
                }
            }
        }
    }
    JOINT LeftHip
    {
        OFFSET   9.783040   0.000000   0.000000
        CHANNELS 3 Zrotation Xrotation Yrotation
        JOINT LeftKnee
        {
            OFFSET   0.000032 -41.789100  -0.002222
            CHANNELS 3 Zrotation Xrotation Yrotation
            JOINT LeftAnkle
            {
                OFFSET   0.000087 -41.133200  -0.000135
                CHANNELS 3 Zrotation Xrotation Yrotation
                JOINT LeftToe
                {
                    OFFSET   0.000000  -6.358960  14.674500
                    CHANNELS 3 Zrotation Xrotation Yrotation
                    End Site
                    {
                        OFFSET   0.000000   0.000000   3.913200
                    }
                }
            }
        }
    }
    JOINT RightHip
    {
        OFFSET  -9.783040   0.000000   0.000000
        CHANNELS 3 Zrotation Xrotation Yrotation
        JOINT RightKnee
        {
            OFFSET   0.000047 -41.789100  -0.000896
            CHANNELS 3 Zrotation Xrotation Yrotation
            JOINT RightAnkle
            {
                OFFSET  -0.000117 -41.133300  -0.000248
                CHANNELS 3 Zrotation Xrotation Yrotation
                JOINT RightToe
                {
                    OFFSET   0.000000  -6.358970  14.674500
                    CHANNELS 3 Zrotation Xrotation Yrotation
                    End Site
                    {
                        OFFSET   0.000000   0.000000   3.913200
                    }
                }
            }
        }
    }
}
MOTION
Frames: 4
Frame Time:   0.016667
 -1.284250  89.372500   1.141500  -1.334200 -13.859300   4.742050   1.156650   8.230830  -0.179048   2.373950  16.456200  -0.536387   6.406730  -0.206937   0.023374  10.525900  -0.403909  -0.756083  -6.007180  -1.414740  -0.223837 -67.041900  23.166600 -11.523300  -2.983550  -4.105330 -10.711000   9.104470  -2.218690  13.151900  43.061200  34.850500 -67.143200 -26.756200   0.006793   0.003473  -8.378110   0.002735  -0.001116 -42.535700   8.136470  -8.768690 -35.310000  -0.016957  -0.006687 -25.351300  -0.014283  -0.008198 -33.887900   2.941130  -4.362760 -51.001400   0.000192  -0.008592 -33.967000   0.002658  -0.006971 -34.485500  -0.625470   0.909433 -51.735800  -0.002220   0.000201 -34.456100  -0.000684   0.003987 -48.097200  -3.790960   3.395300 -72.314400   0.000000  -0.003843 -48.161400   0.000315  -0.002197   1.900240 -10.218700  11.417700  14.110800 -19.527200  84.091400 -21.151000   0.822563  30.772900  62.945200  -5.574980   3.973200 -52.092800  40.032200  63.087500  22.079800   0.019813  -0.017884   6.039930   0.011584   0.014322  41.904900  11.316600  12.464200  35.318600  -0.072483  -0.030720  25.441700  -0.062097  -0.003084  28.702000   4.831970   8.749650  45.628600  -0.091494  -0.070209  30.055300  -0.074927  -0.009644  28.989600   2.528340   4.574280  40.892800  -0.051038  -0.048167  27.007400  -0.045905  -0.003993  42.111600  -1.788790  -1.878350  63.222000  -0.043403  -0.019693  42.105800  -0.033880   0.005151   5.581670  18.753400  -0.047947   2.280480   0.145486   1.430740  -5.438950  -4.274770  -4.461120  -0.000000   0.000000  -0.000000   3.083850  12.391300  -5.267220   2.093570   6.806550  -2.709680  -5.477910  -4.586360  -1.900320  -0.000000   0.000000   0.000000
 -1.298750  89.356600   1.154570  -1.290480 -13.839200   4.882470   1.169660   8.193090  -0.282908   2.418390  16.378500  -0.748451   6.360730  -0.123600   0.013826  10.450100  -0.241198  -0.587167  -6.009690  -1.319210  -0.205023 -67.009000  23.176500 -11.501200  -3.030000  -4.203590 -10.740000   9.076940  -2.259500  13.210400  43.074600  34.915300 -67.202500 -26.790900   0.006828   0.003500  -8.395460   0.002702  -0.001040 -42.531600   8.073120  -8.703910 -35.302000  -0.018098   0.063715 -25.343800  -0.048536   0.047511 -33.892500   2.912690  -4.326390 -51.002600  -0.017738  -0.031589 -33.967800   0.002570  -0.025985 -34.455500  -0.664471   0.968214 -51.691700  -0.002127   0.000215 -34.426700  -0.000946   0.003936 -48.056300  -3.775890   3.386580 -72.252200   0.000000  -0.003887 -48.120000   0.000405  -0.002121   1.925120 -10.175200  11.380700  14.152900 -19.110100  83.989000 -21.485800   1.273960  31.159400  56.331200  -5.676030   4.227050 -53.837500  41.613800  63.517900  22.038000   0.057905  -0.023342   6.018990   0.032992   0.029291  37.402900  11.172800  14.336500  31.777700  -0.089803  -0.024360  22.318200  -0.067545   0.005835  27.416200   5.221920   9.955450  37.880300  -0.107410  -0.035781  25.228300  -0.075425   0.006570  27.620300   2.535840   4.760710  33.765200  -0.053486  -0.010745  22.487600  -0.035110   0.006823  38.597900  -0.758945  -0.823842  57.916100  -0.045416  -0.000799  38.572100  -0.025010   0.017829   5.637430  18.705700  -0.016432   2.218770   0.179141   1.369290  -5.457100  -4.285500  -4.585210  -0.000000   0.000000   0.000000   3.103750  12.384200  -5.228020   2.099870   6.817350  -2.782320  -5.495090  -4.617310  -2.009600   0.000000   0.000000   0.000000
 -1.310390  89.344300   1.165960  -1.265420 -13.821200   4.949880   1.186620   8.152700  -0.374270   2.470410  16.295700  -0.934870   6.329190  -0.033673   0.003713  10.398100  -0.065495  -0.424149  -6.003440  -1.232660  -0.183084 -67.002400  23.280600 -11.527900  -3.049900  -4.328740 -10.645700   8.987410  -2.085750  13.282500  43.199300  35.162200 -67.434000 -26.847900   0.006852   0.003516  -8.423940   0.002669  -0.000981 -42.504600   8.034970  -8.675300 -35.276800  -0.016470   0.138918 -25.320100  -0.065706   0.099099 -33.836100   2.865660  -4.267110 -50.912200  -0.058210  -0.047647 -33.907600  -0.016938  -0.044694 -34.402200  -0.678079   0.991487 -51.612200  -0.002039   0.000205 -34.373700  -0.001227   0.003885 -47.994700  -3.752880   3.373230 -72.158200   0.000000  -0.003928 -48.057400   0.000498  -0.002041   1.946600 -10.106000  11.378200  14.237200 -18.683000  84.146600 -21.428000   1.640960  31.212000  48.963400  -4.577880   3.455280 -55.232400  43.261600  64.752200  22.878600   0.056668  -0.023128   6.439310   0.032416   0.030822  32.183100  10.853400  16.610300  27.639600  -0.003700  -0.026508  19.220000  -0.003548  -0.016616  27.178300   5.658080  10.937100  30.398400   0.044639  -0.034859  20.305000   0.026866  -0.029025  27.018600   2.271000   4.333520  27.888900   0.047021   0.025524  18.587500   0.049138   0.001940  35.083000   0.218739   0.319857  52.620500   0.000102  -0.004362  35.045300   0.003500  -0.001885   5.661720  18.678700   0.010645   2.182570   0.176424   1.333090  -5.466360  -4.278580  -4.645750  -0.000000   0.000000   0.000000   3.101960  12.390700  -5.187810   2.115170   6.808610  -2.820400  -5.500480  -4.636290  -2.073290  -0.000000   0.000000   0.000000
 -1.319580  89.335100   1.174270  -1.253390 -13.804600   4.965740   1.202760   8.114180  -0.428832   2.505840  16.217100  -1.047660   6.314840   0.046790  -0.005218  10.374400   0.091646  -0.291737  -5.990700  -1.158640  -0.162103 -66.981500  23.488000 -11.609300  -3.060450  -4.467600 -10.447400   8.855310  -1.782540  13.358500  43.347200  35.417900 -67.682500 -26.907600   0.006873   0.003527  -8.453790   0.002633  -0.000922 -42.461400   8.020070  -8.668920 -35.239300  -0.010534   0.185001 -25.285000  -0.072591   0.129228 -33.742200   2.814410  -4.204130 -50.767500  -0.087002  -0.055894 -33.811100  -0.036370  -0.055858 -34.337300  -0.680023   0.995196 -51.515100  -0.001954   0.000167 -34.309000  -0.001513   0.003835 -47.921100  -3.725270   3.357160 -72.045800   0.000000  -0.003967 -47.982500   0.000591  -0.001958   1.969260 -10.030100  11.375700  14.533900 -18.258100  84.375500 -21.143700   2.212820  31.230300  41.337800  -2.145090   2.056610 -54.889200  44.145200  65.657800  24.432200   0.048009  -0.021625   7.216130   0.028387   0.031040  29.131600  10.625600  17.968200  25.206000   0.115287  -0.038894  17.515400   0.067772  -0.053998  27.013700   5.929460  11.409500  26.191600   0.234853  -0.034727  17.515500   0.135725  -0.082568  26.962200   2.005740   3.906590  24.882600   0.179423   0.047055  16.571900   0.124134  -0.015980  33.152800   0.731960   0.979599  49.723300   0.060810  -0.029305  33.115800   0.023308  -0.040771   5.667250  18.669200   0.023936   2.168590   0.157384   1.321020  -5.469730  -4.259310  -4.661490  -0.000000   0.000000   0.000000   3.098890  12.401700  -5.164960   2.131740   6.790560  -2.831930  -5.501280  -4.643270  -2.095050   0.000000   0.000000   0.000000
